<?xml version="1.0" standalone="no"?>
<!DOCTYPE svg PUBLIC "-//W3C//DTD SVG 20010904//EN"
 "http://www.w3.org/TR/2001/REC-SVG-20010904/DTD/svg10.dtd">
<svg version="1.0" xmlns="http://www.w3.org/2000/svg"
 width="700.000000pt" height="700.000000pt" viewBox="0 0 700.000000 700.000000"
 preserveAspectRatio="xMidYMid meet">
<metadata>
Created by potrace 1.14, written by Peter Selinger 2001-2017
</metadata>
<g transform="translate(0.000000,700.000000) scale(0.100000,-0.100000)"
fill="#000000" stroke="none">
<path d="M3327 6414 c-1 -1 -35 -4 -76 -8 -106 -9 -272 -34 -376 -57 -49 -11
-97 -22 -106 -24 -55 -12 -241 -74 -339 -112 -374 -147 -697 -360 -985 -648
-155 -154 -258 -278 -359 -430 -36 -55 -71 -106 -78 -114 -30 -36 -199 -389
-241 -503 -74 -201 -134 -435 -153 -601 -4 -28 -8 -54 -9 -57 -8 -13 -19 -227
-19 -360 0 -225 11 -345 50 -545 110 -577 382 -1093 794 -1505 142 -142 162
-160 280 -251 235 -180 461 -309 722 -413 120 -47 355 -120 424 -130 22 -4 55
-11 74 -16 117 -30 349 -53 555 -54 238 0 433 19 640 65 50 11 100 22 113 25
13 3 91 27 173 54 249 83 476 192 684 329 87 57 220 154 235 170 3 3 28 24 55
46 78 62 285 271 362 366 203 251 351 501 463 784 92 232 143 429 184 708 26
173 26 535 1 727 -87 657 -373 1240 -834 1701 -368 367 -808 621 -1311 758
-137 37 -317 69 -490 87 -58 6 -427 13 -433 8z m448 -449 c735 -95 1331 -450
1763 -1053 29 -40 52 -74 52 -77 0 -3 15 -29 34 -58 153 -239 290 -623 330
-927 20 -148 20 -159 -7 -169 -25 -10 -241 -55 -309 -65 l-38 -6 -1 58 c-1 31
-2 68 -3 82 -2 14 -6 59 -10 100 -18 199 -81 527 -116 606 -57 132 -251 109
-275 -33 -3 -18 4 -65 14 -105 21 -76 46 -194 56 -263 3 -23 7 -52 10 -65 3
-14 7 -52 11 -85 3 -33 7 -66 9 -72 2 -7 7 -66 11 -131 l6 -118 -128 2 c-151
2 -260 11 -350 29 -21 5 -22 10 -24 157 -2 162 -3 191 -14 303 -11 112 -22
188 -52 350 -22 123 -48 182 -93 212 -66 44 -158 22 -201 -49 -24 -39 -25 -80
-6 -157 8 -31 18 -76 21 -101 3 -25 8 -52 10 -60 6 -22 13 -67 21 -135 3 -33
8 -69 10 -80 3 -11 7 -100 11 -197 l6 -177 -29 8 c-82 24 -262 87 -360 126
-132 53 -166 59 -216 34 -113 -57 -108 -199 9 -262 65 -34 317 -127 463 -169
l110 -32 -5 -41 c-18 -129 -63 -322 -85 -364 -5 -9 -25 -53 -46 -98 -20 -46
-40 -83 -44 -83 -9 0 -254 72 -340 100 -86 27 -99 29 -135 16 -45 -16 -70 -37
-89 -73 -32 -63 -10 -149 48 -184 28 -17 230 -85 315 -106 l33 -9 -43 -54
c-83 -105 -276 -289 -399 -380 -60 -44 -88 -80 -95 -120 -22 -132 116 -218
229 -144 154 102 449 390 571 559 41 56 53 65 79 55 12 -4 41 -10 66 -14 25
-3 56 -8 70 -11 14 -3 49 -8 79 -11 30 -3 64 -8 75 -10 12 -2 63 -4 113 -5
l93 -1 -60 -73 c-87 -107 -221 -239 -336 -332 -125 -102 -150 -151 -114 -230
29 -65 78 -90 166 -84 20 1 111 65 196 138 44 38 235 228 278 278 35 40 161
208 212 285 25 36 32 40 70 41 24 0 50 2 59 4 8 1 42 6 75 9 32 4 66 9 74 11
8 2 33 6 55 9 22 4 52 9 67 12 l28 6 -28 -59 c-158 -333 -423 -660 -723 -889
-359 -275 -777 -444 -1233 -498 -108 -13 -478 -14 -556 -1 -19 3 -64 10 -100
16 -115 18 -124 20 -223 45 -359 91 -743 287 -1002 514 -81 71 -273 267 -327
335 -124 157 -252 366 -324 529 -20 44 -42 95 -50 113 -15 33 -81 234 -89 268
-2 11 -11 47 -19 80 -18 73 -43 220 -51 295 -11 94 -13 422 -4 495 4 39 11 90
13 115 21 178 102 472 176 635 112 249 223 428 390 630 98 118 277 284 425
395 346 257 818 437 1230 467 44 3 82 7 84 9 6 6 371 -4 426 -11z m2200 -2612
c-2 -21 -6 -66 -9 -99 -11 -123 -39 -277 -68 -379 -11 -38 -21 -71 -22 -72 -3
-3 -128 -29 -176 -37 -19 -3 -46 -8 -58 -10 -13 -3 -50 -8 -82 -12 l-58 -6 24
82 c25 85 31 110 39 170 3 19 7 44 10 55 2 11 7 54 11 95 4 41 8 86 10 100 1
14 2 37 3 51 1 24 5 27 58 33 64 7 306 55 312 62 9 8 10 3 6 -33z m-1032 -49
c20 -4 253 -14 335 -14 30 0 32 -2 28 -27 -2 -16 -10 -77 -16 -138 -13 -119
-53 -275 -94 -367 l-25 -57 -178 0 c-98 1 -203 5 -233 10 -30 5 -73 11 -95 15
-22 3 -41 6 -42 7 -1 1 12 34 29 72 54 126 107 316 123 445 4 30 10 59 12 63
5 8 101 2 156 -9z"/>
<path d="M2395 4610 c-73 -36 -79 -57 -81 -285 -3 -258 -2 -245 -18 -245 -8 0
-60 81 -116 181 -65 113 -114 189 -134 204 -94 72 -239 -4 -230 -120 3 -43 4
-44 138 -278 55 -96 76 -141 69 -148 -10 -10 -66 19 -263 135 -103 61 -148 78
-191 71 -100 -17 -153 -130 -102 -218 17 -29 100 -82 348 -222 47 -27 58 -55
23 -56 -13 0 -113 -1 -224 -2 -196 -2 -201 -3 -237 -27 -37 -25 -67 -80 -67
-122 0 -12 9 -41 20 -64 35 -71 59 -78 307 -79 141 0 216 -4 223 -11 11 -11
-26 -38 -140 -102 -164 -92 -235 -140 -253 -170 -24 -41 -24 -103 0 -145 24
-42 94 -77 139 -71 30 3 109 38 124 54 3 3 67 41 143 84 98 56 141 76 149 68
7 -7 -10 -45 -58 -128 -38 -65 -73 -126 -79 -136 -56 -96 -68 -127 -69 -169 0
-107 112 -173 209 -123 31 17 53 46 127 169 49 83 91 157 95 165 3 8 15 28 26
43 36 53 42 24 41 -200 -1 -229 3 -252 55 -296 57 -48 131 -45 190 7 40 36 44
62 46 286 1 189 3 215 17 218 14 3 72 -85 110 -168 4 -8 33 -58 65 -110 47
-78 66 -99 101 -117 89 -44 191 11 205 112 6 43 -7 72 -101 234 -115 198 -116
201 -104 213 8 8 67 -22 197 -97 134 -77 198 -108 225 -110 87 -6 165 80 150
164 -4 22 -14 51 -23 65 -14 20 -145 102 -332 207 -31 17 -50 34 -50 46 0 17
14 18 215 19 127 1 226 5 241 12 62 25 101 111 79 177 -11 33 -69 94 -93 97
-7 0 -104 2 -217 4 -113 1 -211 3 -218 3 -37 2 6 40 123 108 214 123 236 137
256 170 56 90 -8 214 -113 219 -40 2 -79 -14 -176 -71 -55 -32 -183 -106 -216
-124 -26 -15 -42 -19 -49 -12 -9 9 16 57 141 271 62 106 69 127 64 197 -3 32
-62 89 -105 101 -64 18 -139 -16 -170 -76 -55 -110 -192 -332 -203 -332 -17 0
-16 -23 -18 232 -1 241 -3 246 -76 296 -41 27 -83 28 -135 2z"/>
</g>
</svg>
